<svg viewBox="0 -92.5 848 848" fill="none" xmlns="http://www.w3.org/2000/svg">
<style>
.line { stroke: #000000; }
.eye-l { fill: url(#eye-light-l); }
.eye-r { fill: url(#eye-light-r); }
@media (prefers-color-scheme: dark) {
.line { stroke: #F2F2F2; }
.eye-l { fill: url(#eye-dark-l); }
.eye-r { fill: url(#eye-dark-r); }
}
</style>
<path d="M111 31C14 35 14 55 14 104C14 146 21 192 35 236" stroke="#D8E4FF" stroke-width="28" stroke-linecap="round" stroke-linejoin="round"/>
<path d="M367 31C463 31 463 55 463 104C463 146 456 192 442 236" stroke="#D8E4FF" stroke-width="28" stroke-linecap="round" stroke-linejoin="round"/>
<path class="line" d="M35 232C48 283 78 318 113 345" stroke-width="52" stroke-linecap="round" stroke-linejoin="round"/>
<path class="line" d="M443 232C430 283 404 320 369 345" stroke-width="52" stroke-linecap="round" stroke-linejoin="round"/>
<path class="line" d="M90 636V440C90 358 156 293 243 293C331 293 397 358 397 440V529C397 592 446 636 509 636H645" stroke-width="52" stroke-linecap="round" stroke-linejoin="round"/>
<path class="line" d="M665 637C751.709 637 822 566.709 822 480C822 393.291 751.709 323 665 323C578.291 323 508 393.291 508 480C508 566.709 578.291 637 665 637Z" stroke-width="52" stroke-linecap="round" stroke-linejoin="round"/>
<path class="eye-l" d="M144 0H110C93.9837 0 81 12.9837 81 29V34C81 50.0163 93.9837 63 110 63H144C160.016 63 173 50.0163 173 34V29C173 12.9837 160.016 0 144 0Z"/>
<path class="eye-r" d="M367 0H334C317.984 0 305 12.9837 305 29V34C305 50.0163 317.984 63 334 63H367C383.016 63 396 50.0163 396 34V29C396 12.9837 383.016 0 367 0Z"/>
<defs>
<linearGradient id="eye-light-l" x1="174.752" y1="3" x2="174.752" y2="56" gradientUnits="userSpaceOnUse">
<stop stop-color="#082A58"/>
<stop offset="1" stop-color="#115BBE"/>
</linearGradient>
<linearGradient id="eye-dark-l" x1="127" y1="0" x2="127" y2="63" gradientUnits="userSpaceOnUse">
<stop stop-color="#3EC5FF"/>
<stop offset="1" stop-color="#2819C5"/>
</linearGradient>
<linearGradient id="eye-light-r" x1="397.733" y1="3" x2="397.733" y2="56" gradientUnits="userSpaceOnUse">
<stop stop-color="#082A58"/>
<stop offset="1" stop-color="#115BBE"/>
</linearGradient>
<linearGradient id="eye-dark-r" x1="350.5" y1="0" x2="350.5" y2="63" gradientUnits="userSpaceOnUse">
<stop stop-color="#3EC5FF"/>
<stop offset="1" stop-color="#2819C5"/>
</linearGradient>
</defs>
</svg>
